<svg id="visual" viewBox="0 0 900 600" width="900" height="600" xmlns="http://www.w3.org/2000/svg" xmlns:xlink="http://www.w3.org/1999/xlink" version="1.1"><rect x="0" y="0" width="900" height="600" fill="#001220"></rect><defs><linearGradient id="grad1_0" x1="33.3%" y1="0%" x2="100%" y2="100%"><stop offset="20%" stop-color="#fcaf3c" stop-opacity="1"></stop><stop offset="80%" stop-color="#fcaf3c" stop-opacity="1"></stop></linearGradient></defs><defs><linearGradient id="grad1_1" x1="33.3%" y1="0%" x2="100%" y2="100%"><stop offset="20%" stop-color="#fcaf3c" stop-opacity="1"></stop><stop offset="80%" stop-color="#ec7458" stop-opacity="1"></stop></linearGradient></defs><defs><linearGradient id="grad1_2" x1="33.3%" y1="0%" x2="100%" y2="100%"><stop offset="20%" stop-color="#b94f6c" stop-opacity="1"></stop><stop offset="80%" stop-color="#ec7458" stop-opacity="1"></stop></linearGradient></defs><defs><linearGradient id="grad1_3" x1="33.3%" y1="0%" x2="100%" y2="100%"><stop offset="20%" stop-color="#b94f6c" stop-opacity="1"></stop><stop offset="80%" stop-color="#723c6a" stop-opacity="1"></stop></linearGradient></defs><defs><linearGradient id="grad1_4" x1="33.3%" y1="0%" x2="100%" y2="100%"><stop offset="20%" stop-color="#2d2b4d" stop-opacity="1"></stop><stop offset="80%" stop-color="#723c6a" stop-opacity="1"></stop></linearGradient></defs><defs><linearGradient id="grad1_5" x1="33.3%" y1="0%" x2="100%" y2="100%"><stop offset="20%" stop-color="#2d2b4d" stop-opacity="1"></stop><stop offset="80%" stop-color="#001220" stop-opacity="1"></stop></linearGradient></defs><defs><linearGradient id="grad2_0" x1="0%" y1="0%" x2="66.7%" y2="100%"><stop offset="20%" stop-color="#fcaf3c" stop-opacity="1"></stop><stop offset="80%" stop-color="#fcaf3c" stop-opacity="1"></stop></linearGradient></defs><defs><linearGradient id="grad2_1" x1="0%" y1="0%" x2="66.7%" y2="100%"><stop offset="20%" stop-color="#ec7458" stop-opacity="1"></stop><stop offset="80%" stop-color="#fcaf3c" stop-opacity="1"></stop></linearGradient></defs><defs><linearGradient id="grad2_2" x1="0%" y1="0%" x2="66.7%" y2="100%"><stop offset="20%" stop-color="#ec7458" stop-opacity="1"></stop><stop offset="80%" stop-color="#b94f6c" stop-opacity="1"></stop></linearGradient></defs><defs><linearGradient id="grad2_3" x1="0%" y1="0%" x2="66.7%" y2="100%"><stop offset="20%" stop-color="#723c6a" stop-opacity="1"></stop><stop offset="80%" stop-color="#b94f6c" stop-opacity="1"></stop></linearGradient></defs><defs><linearGradient id="grad2_4" x1="0%" y1="0%" x2="66.7%" y2="100%"><stop offset="20%" stop-color="#723c6a" stop-opacity="1"></stop><stop offset="80%" stop-color="#2d2b4d" stop-opacity="1"></stop></linearGradient></defs><defs><linearGradient id="grad2_5" x1="0%" y1="0%" x2="66.7%" y2="100%"><stop offset="20%" stop-color="#001220" stop-opacity="1"></stop><stop offset="80%" stop-color="#2d2b4d" stop-opacity="1"></stop></linearGradient></defs><g transform="translate(900, 0)"><path d="M0 324.5C-29.6 324.2 -59.3 323.8 -83.1 310.1C-106.9 296.3 -124.8 269.2 -145 251.1C-165.2 233.1 -187.7 224.1 -211.4 211.4C-235.1 198.7 -260.1 182.3 -278 160.5C-295.9 138.7 -306.9 111.6 -313.4 84C-320 56.3 -322.3 28.2 -324.5 0L0 0Z" fill="#132037"></path><path d="M0 270.4C-24.7 270.1 -49.4 269.8 -69.2 258.4C-89.1 246.9 -104 224.3 -120.8 209.3C-137.7 194.2 -156.4 186.8 -176.2 176.2C-195.9 165.6 -216.7 151.9 -231.7 133.8C-246.6 115.6 -255.7 93 -261.2 70C-266.7 47 -268.6 23.5 -270.4 0L0 0Z" fill="#4e355e"></path><path d="M0 216.3C-19.8 216.1 -39.5 215.9 -55.4 206.7C-71.2 197.5 -83.2 179.5 -96.7 167.4C-110.1 155.4 -125.1 149.4 -140.9 140.9C-156.8 132.5 -173.4 121.5 -185.3 107C-197.3 92.5 -204.6 74.4 -209 56C-213.4 37.6 -214.8 18.8 -216.3 0L0 0Z" fill="#97446e"></path><path d="M0 162.2C-14.8 162.1 -29.6 161.9 -41.5 155C-53.4 148.2 -62.4 134.6 -72.5 125.6C-82.6 116.5 -93.9 112.1 -105.7 105.7C-117.6 99.4 -130 91.1 -139 80.3C-148 69.4 -153.4 55.8 -156.7 42C-160 28.2 -161.1 14.1 -162.2 0L0 0Z" fill="#d65e64"></path><path d="M0 108.2C-9.9 108.1 -19.8 107.9 -27.7 103.4C-35.6 98.8 -41.6 89.7 -48.3 83.7C-55.1 77.7 -62.6 74.7 -70.5 70.5C-78.4 66.2 -86.7 60.8 -92.7 53.5C-98.6 46.2 -102.3 37.2 -104.5 28C-106.7 18.8 -107.4 9.4 -108.2 0L0 0Z" fill="#f9904a"></path><path d="M0 54.1C-4.9 54 -9.9 54 -13.8 51.7C-17.8 49.4 -20.8 44.9 -24.2 41.9C-27.5 38.8 -31.3 37.4 -35.2 35.2C-39.2 33.1 -43.3 30.4 -46.3 26.8C-49.3 23.1 -51.1 18.6 -52.2 14C-53.3 9.4 -53.7 4.7 -54.1 0L0 0Z" fill="#fcaf3c"></path></g><g transform="translate(0, 600)"><path d="M0 -324.5C23.4 -305 46.9 -285.5 75.3 -281.1C103.7 -276.7 137.1 -287.5 161 -278.9C184.9 -270.2 199.2 -242.2 221.3 -221.3C243.5 -200.4 273.5 -186.6 281 -162.2C288.6 -137.9 273.7 -103.1 277.2 -74.3C280.7 -45.5 302.6 -22.7 324.5 0L0 0Z" fill="#132037"></path><path d="M0 -270.4C19.5 -254.1 39.1 -237.9 62.8 -234.2C86.5 -230.6 114.3 -239.6 134.2 -232.4C154 -225.2 166 -201.9 184.4 -184.4C202.9 -167 227.9 -155.5 234.2 -135.2C240.5 -114.9 228.1 -85.9 231 -61.9C233.9 -37.9 252.2 -19 270.4 0L0 0Z" fill="#4e355e"></path><path d="M0 -216.3C15.6 -203.3 31.3 -190.3 50.2 -187.4C69.2 -184.5 91.4 -191.7 107.3 -185.9C123.2 -180.2 132.8 -161.5 147.5 -147.5C162.3 -133.6 182.3 -124.4 187.3 -108.2C192.4 -91.9 182.5 -68.7 184.8 -49.5C187.2 -30.3 201.7 -15.2 216.3 0L0 0Z" fill="#97446e"></path><path d="M0 -162.2C11.7 -152.5 23.4 -142.7 37.7 -140.5C51.9 -138.4 68.6 -143.7 80.5 -139.4C92.4 -135.1 99.6 -121.1 110.7 -110.7C121.7 -100.2 136.7 -93.3 140.5 -81.1C144.3 -69 136.9 -51.5 138.6 -37.1C140.4 -22.7 151.3 -11.4 162.2 0L0 0Z" fill="#d65e64"></path><path d="M0 -108.2C7.8 -101.7 15.6 -95.2 25.1 -93.7C34.6 -92.2 45.7 -95.8 53.7 -93C61.6 -90.1 66.4 -80.7 73.8 -73.8C81.2 -66.8 91.2 -62.2 93.7 -54.1C96.2 -46 91.2 -34.4 92.4 -24.8C93.6 -15.2 100.9 -7.6 108.2 0L0 0Z" fill="#f9904a"></path><path d="M0 -54.1C3.9 -50.8 7.8 -47.6 12.6 -46.8C17.3 -46.1 22.9 -47.9 26.8 -46.5C30.8 -45 33.2 -40.4 36.9 -36.9C40.6 -33.4 45.6 -31.1 46.8 -27C48.1 -23 45.6 -17.2 46.2 -12.4C46.8 -7.6 50.4 -3.8 54.1 0L0 0Z" fill="#fcaf3c"></path></g></svg>