<svg id="visual" viewBox="0 0 960 540" width="960" height="540" xmlns="http://www.w3.org/2000/svg" xmlns:xlink="http://www.w3.org/1999/xlink" version="1.1"><path d="M0 109L14.5 105.3C29 101.7 58 94.3 87.2 101.5C116.3 108.7 145.7 130.3 174.8 126.8C204 123.3 233 94.7 262 96.5C291 98.3 320 130.7 349 142.3C378 154 407 145 436.2 137.8C465.3 130.7 494.7 125.3 523.8 127.2C553 129 582 138 611 133.5C640 129 669 111 698 101C727 91 756 89 785.2 83.5C814.3 78 843.7 69 872.8 78C902 87 931 114 945.5 127.5L960 141L960 0L945.5 0C931 0 902 0 872.8 0C843.7 0 814.3 0 785.2 0C756 0 727 0 698 0C669 0 640 0 611 0C582 0 553 0 523.8 0C494.7 0 465.3 0 436.2 0C407 0 378 0 349 0C320 0 291 0 262 0C233 0 204 0 174.8 0C145.7 0 116.3 0 87.2 0C58 0 29 0 14.5 0L0 0Z" fill="#515d68"></path><path d="M0 131L14.5 128.2C29 125.3 58 119.7 87.2 128.7C116.3 137.7 145.7 161.3 174.8 161.3C204 161.3 233 137.7 262 141.2C291 144.7 320 175.3 349 184.3C378 193.3 407 180.7 436.2 173.5C465.3 166.3 494.7 164.7 523.8 167.5C553 170.3 582 177.7 611 175C640 172.3 669 159.7 698 149.7C727 139.7 756 132.3 785.2 120.7C814.3 109 843.7 93 872.8 99.3C902 105.7 931 134.3 945.5 148.7L960 163L960 139L945.5 125.5C931 112 902 85 872.8 76C843.7 67 814.3 76 785.2 81.5C756 87 727 89 698 99C669 109 640 127 611 131.5C582 136 553 127 523.8 125.2C494.7 123.3 465.3 128.7 436.2 135.8C407 143 378 152 349 140.3C320 128.7 291 96.3 262 94.5C233 92.7 204 121.3 174.8 124.8C145.7 128.3 116.3 106.7 87.2 99.5C58 92.3 29 99.7 14.5 103.3L0 107Z" fill="#48545f"></path><path d="M0 163L14.5 158.5C29 154 58 145 87.2 153.2C116.3 161.3 145.7 186.7 174.8 186.7C204 186.7 233 161.3 262 169.3C291 177.3 320 218.7 349 230.3C378 242 407 224 436.2 220.5C465.3 217 494.7 228 523.8 229.8C553 231.7 582 224.3 611 218.8C640 213.3 669 209.7 698 201.5C727 193.3 756 180.7 785.2 167.2C814.3 153.7 843.7 139.3 872.8 147.5C902 155.7 931 186.3 945.5 201.7L960 217L960 161L945.5 146.7C931 132.3 902 103.7 872.8 97.3C843.7 91 814.3 107 785.2 118.7C756 130.3 727 137.7 698 147.7C669 157.7 640 170.3 611 173C582 175.7 553 168.3 523.8 165.5C494.7 162.7 465.3 164.3 436.2 171.5C407 178.7 378 191.3 349 182.3C320 173.3 291 142.7 262 139.2C233 135.7 204 159.3 174.8 159.3C145.7 159.3 116.3 135.7 87.2 126.7C58 117.7 29 123.3 14.5 126.2L0 129Z" fill="#404b55"></path><path d="M0 185L14.5 185.8C29 186.7 58 188.3 87.2 195.5C116.3 202.7 145.7 215.3 174.8 215.3C204 215.3 233 202.7 262 213.5C291 224.3 320 258.7 349 266.8C378 275 407 257 436.2 251.5C465.3 246 494.7 253 523.8 253C553 253 582 246 611 243.3C640 240.7 669 242.3 698 240.5C727 238.7 756 233.3 785.2 220.7C814.3 208 843.7 188 872.8 193.3C902 198.7 931 229.3 945.5 244.7L960 260L960 215L945.5 199.7C931 184.3 902 153.7 872.8 145.5C843.7 137.3 814.3 151.7 785.2 165.2C756 178.7 727 191.3 698 199.5C669 207.7 640 211.3 611 216.8C582 222.3 553 229.7 523.8 227.8C494.7 226 465.3 215 436.2 218.5C407 222 378 240 349 228.3C320 216.7 291 175.3 262 167.3C233 159.3 204 184.7 174.8 184.7C145.7 184.7 116.3 159.3 87.2 151.2C58 143 29 152 14.5 156.5L0 161Z" fill="#37424c"></path><path d="M0 228L14.5 224.3C29 220.7 58 213.3 87.2 220.5C116.3 227.7 145.7 249.3 174.8 253.8C204 258.3 233 245.7 262 253.8C291 262 320 291 349 296.5C378 302 407 284 436.2 276.7C465.3 269.3 494.7 272.7 523.8 270.8C553 269 582 262 611 262C640 262 669 269 698 267.2C727 265.3 756 254.7 785.2 239.5C814.3 224.3 843.7 204.7 872.8 210C902 215.3 931 245.7 945.5 260.8L960 276L960 258L945.5 242.7C931 227.3 902 196.7 872.8 191.3C843.7 186 814.3 206 785.2 218.7C756 231.3 727 236.7 698 238.5C669 240.3 640 238.7 611 241.3C582 244 553 251 523.8 251C494.7 251 465.3 244 436.2 249.5C407 255 378 273 349 264.8C320 256.7 291 222.3 262 211.5C233 200.7 204 213.3 174.8 213.3C145.7 213.3 116.3 200.7 87.2 193.5C58 186.3 29 184.7 14.5 183.8L0 183Z" fill="#2f3943"></path><path d="M0 320L14.5 329C29 338 58 356 87.2 366.7C116.3 377.3 145.7 380.7 174.8 385.2C204 389.7 233 395.3 262 395.3C291 395.3 320 389.7 349 385.2C378 380.7 407 377.3 436.2 376.5C465.3 375.7 494.7 377.3 523.8 382.7C553 388 582 397 611 397.8C640 398.7 669 391.3 698 393.2C727 395 756 406 785.2 403.3C814.3 400.7 843.7 384.3 872.8 369.8C902 355.3 931 342.7 945.5 336.3L960 330L960 274L945.5 258.8C931 243.7 902 213.3 872.8 208C843.7 202.7 814.3 222.3 785.2 237.5C756 252.7 727 263.3 698 265.2C669 267 640 260 611 260C582 260 553 267 523.8 268.8C494.7 270.7 465.3 267.3 436.2 274.7C407 282 378 300 349 294.5C320 289 291 260 262 251.8C233 243.7 204 256.3 174.8 251.8C145.7 247.3 116.3 225.7 87.2 218.5C58 211.3 29 218.7 14.5 222.3L0 226Z" fill="#2c353f"></path><path d="M0 406L14.5 410.5C29 415 58 424 87.2 427.7C116.3 431.3 145.7 429.7 174.8 429.7C204 429.7 233 431.3 262 428.5C291 425.7 320 418.3 349 414.7C378 411 407 411 436.2 417.3C465.3 423.7 494.7 436.3 523.8 442.7C553 449 582 449 611 448.2C640 447.3 669 445.7 698 449.3C727 453 756 462 785.2 461C814.3 460 843.7 449 872.8 440C902 431 931 424 945.5 420.5L960 417L960 328L945.5 334.3C931 340.7 902 353.3 872.8 367.8C843.7 382.3 814.3 398.7 785.2 401.3C756 404 727 393 698 391.2C669 389.3 640 396.7 611 395.8C582 395 553 386 523.8 380.7C494.7 375.3 465.3 373.7 436.2 374.5C407 375.3 378 378.7 349 383.2C320 387.7 291 393.3 262 393.3C233 393.3 204 387.7 174.8 383.2C145.7 378.7 116.3 375.3 87.2 364.7C58 354 29 336 14.5 327L0 318Z" fill="#2a313a"></path><path d="M0 449L14.5 450.8C29 452.7 58 456.3 87.2 460C116.3 463.7 145.7 467.3 174.8 469.2C204 471 233 471 262 468.3C291 465.7 320 460.3 349 457.7C378 455 407 455 436.2 456.7C465.3 458.3 494.7 461.7 523.8 463.3C553 465 582 465 611 465C640 465 669 465 698 472.3C727 479.7 756 494.3 785.2 496.2C814.3 498 843.7 487 872.8 478C902 469 931 462 945.5 458.5L960 455L960 415L945.5 418.5C931 422 902 429 872.8 438C843.7 447 814.3 458 785.2 459C756 460 727 451 698 447.3C669 443.7 640 445.3 611 446.2C582 447 553 447 523.8 440.7C494.7 434.3 465.3 421.7 436.2 415.3C407 409 378 409 349 412.7C320 416.3 291 423.7 262 426.5C233 429.3 204 427.7 174.8 427.7C145.7 427.7 116.3 429.3 87.2 425.7C58 422 29 413 14.5 408.5L0 404Z" fill="#272e36"></path><path d="M0 541L14.5 541C29 541 58 541 87.2 541C116.3 541 145.7 541 174.8 541C204 541 233 541 262 541C291 541 320 541 349 541C378 541 407 541 436.2 541C465.3 541 494.7 541 523.8 541C553 541 582 541 611 541C640 541 669 541 698 541C727 541 756 541 785.2 541C814.3 541 843.7 541 872.8 541C902 541 931 541 945.5 541L960 541L960 453L945.5 456.5C931 460 902 467 872.8 476C843.7 485 814.3 496 785.2 494.2C756 492.3 727 477.7 698 470.3C669 463 640 463 611 463C582 463 553 463 523.8 461.3C494.7 459.7 465.3 456.3 436.2 454.7C407 453 378 453 349 455.7C320 458.3 291 463.7 262 466.3C233 469 204 469 174.8 467.2C145.7 465.3 116.3 461.7 87.2 458C58 454.3 29 450.7 14.5 448.8L0 447Z" fill="#242a32"></path></svg>